<?xml version="1.0" encoding="UTF-8" standalone="no"?>
<svg
   width="1450"
   zoomAndPan="magnify"
   viewBox="0 0 1087.5 299.999988"
   height="400"
   preserveAspectRatio="xMidYMid meet"
   version="1.0"
   id="svg24"
   sodipodi:docname="Untitled design (1).svg"
   inkscape:version="1.4.2 (f4327f4, 2025-05-13)"
   xmlns:inkscape="http://www.inkscape.org/namespaces/inkscape"
   xmlns:sodipodi="http://sodipodi.sourceforge.net/DTD/sodipodi-0.dtd"
   xmlns="http://www.w3.org/2000/svg"
   xmlns:svg="http://www.w3.org/2000/svg">
  <sodipodi:namedview
     id="namedview24"
     pagecolor="#ffffff"
     bordercolor="#000000"
     borderopacity="0.25"
     inkscape:showpageshadow="2"
     inkscape:pageopacity="0.0"
     inkscape:pagecheckerboard="0"
     inkscape:deskcolor="#d1d1d1"
     inkscape:zoom="1.171359"
     inkscape:cx="717.11579"
     inkscape:cy="246.29512"
     inkscape:window-width="2547"
     inkscape:window-height="2045"
     inkscape:window-x="1275"
     inkscape:window-y="8"
     inkscape:window-maximized="0"
     inkscape:current-layer="svg24" />
  <defs
     id="defs1">
    <g
       id="g1" />
  </defs>
  <g
     fill="#000000"
     fill-opacity="1"
     id="g6" />
  <g
     id="g27"
     transform="translate(-1.4651269)">
    <g
       id="g26"
       transform="translate(0,-6.4296905)">
      <path
         fill="#155dfc"
         d="m 243.69922,88.429688 c 0,0.953124 -0.0469,1.90625 -0.14063,2.855468 -0.0937,0.949219 -0.23047,1.894532 -0.41797,2.828125 -0.1875,0.9375 -0.41796,1.863281 -0.69531,2.777344 -0.27734,0.914063 -0.59765,1.808594 -0.96484,2.691406 -0.36328,0.882809 -0.76953,1.742189 -1.22266,2.585939 -0.44922,0.83984 -0.9375,1.66016 -1.46875,2.45312 -0.53125,0.79297 -1.09765,1.5586 -1.70312,2.29688 -0.60547,0.73828 -1.2461,1.44531 -1.92188,2.11719 -0.67578,0.67578 -1.3789,1.3164 -2.11719,1.92187 -0.73828,0.60547 -1.5039,1.17188 -2.29687,1.70313 -0.79688,0.53125 -1.61328,1.01953 -2.45313,1.47265 -0.84375,0.44922 -1.70312,0.85547 -2.58593,1.22266 -0.88282,0.36328 -1.78125,0.68359 -2.69532,0.96094 -0.91015,0.27734 -1.83593,0.51172 -2.77343,0.69531 -0.9336,0.1875 -1.87891,0.32812 -2.82813,0.42187 -0.94922,0.0937 -1.90234,0.14063 -2.85547,0.14063 -0.95703,0 -1.90625,-0.0469 -2.85937,-0.14063 -0.94922,-0.0937 -1.89063,-0.23437 -2.82813,-0.42187 -0.93359,-0.18359 -1.85937,-0.41797 -2.77343,-0.69531 -0.91407,-0.27735 -1.8125,-0.59766 -2.69141,-0.96094 -0.88281,-0.36719 -1.74609,-0.77344 -2.58594,-1.22266 -0.84375,-0.45312 -1.66015,-0.9414 -2.45312,-1.47265 -0.79297,-0.53125 -1.5586,-1.09766 -2.29688,-1.70313 -0.73828,-0.60547 -1.44531,-1.24609 -2.12109,-1.92187 -0.67188,-0.67188 -1.3125,-1.37891 -1.91797,-2.11719 -0.60547,-0.73828 -1.17578,-1.50391 -1.70313,-2.29688 -0.53125,-0.79296 -1.02343,-1.61328 -1.47265,-2.45312 -0.44922,-0.84375 -0.85547,-1.70313 -1.22266,-2.585939 -0.36328,-0.882812 -0.6875,-1.777343 -0.96484,-2.691406 -0.27735,-0.914063 -0.50781,-1.839844 -0.69141,-2.777344 -0.1875,-0.933593 -0.32812,-1.878906 -0.42187,-2.828125 -0.0937,-0.949218 -0.14063,-1.902344 -0.14063,-2.855468 0,-0.953126 0.0469,-1.90625 0.14063,-2.855469 0.0937,-0.949219 0.23437,-1.894531 0.42187,-2.828125 0.1836,-0.9375 0.41406,-1.863282 0.69141,-2.777344 0.27734,-0.910156 0.60156,-1.808594 0.96484,-2.691406 0.36719,-0.882813 0.77344,-1.742188 1.22266,-2.585938 0.44922,-0.839844 0.9414,-1.660156 1.46875,-2.453125 0.53125,-0.792969 1.10156,-1.558593 1.70703,-2.296875 0.60547,-0.738281 1.24609,-1.445312 1.91797,-2.117187 0.67578,-0.675781 1.38281,-1.316407 2.12109,-1.921875 0.73828,-0.605469 1.50391,-1.171875 2.29688,-1.703125 0.79297,-0.53125 1.60937,-1.019531 2.45312,-1.472657 0.83985,-0.449218 1.70313,-0.855468 2.58594,-1.222656 0.87891,-0.363281 1.77734,-0.683594 2.69141,-0.960937 0.91406,-0.277344 1.83984,-0.511719 2.77343,-0.695313 0.9375,-0.1875 1.87891,-0.328125 2.82813,-0.421875 0.95312,-0.09375 1.90234,-0.140625 2.85937,-0.140625 0.95313,0 1.90625,0.04687 2.85547,0.140625 0.94922,0.09375 1.89453,0.234375 2.82813,0.421875 0.9375,0.183594 1.86328,0.417969 2.77343,0.695313 0.91407,0.277343 1.8125,0.597656 2.69532,0.960937 0.88281,0.367188 1.74218,0.773438 2.58593,1.222656 0.83985,0.453126 1.65625,0.941407 2.45313,1.472657 0.79297,0.53125 1.55859,1.097656 2.29687,1.703125 0.73829,0.605468 1.44141,1.246094 2.11719,1.921875 0.67578,0.671875 1.31641,1.378906 1.92188,2.117187 0.60547,0.738282 1.17187,1.503906 1.70312,2.296875 0.53125,0.792969 1.01953,1.613281 1.46875,2.453125 0.45313,0.84375 0.85938,1.703125 1.22266,2.585938 0.36719,0.882812 0.6875,1.78125 0.96484,2.691406 0.27735,0.914062 0.50781,1.839844 0.69531,2.777344 0.1875,0.933594 0.32422,1.878906 0.41797,2.828125 0.0937,0.949219 0.14063,1.902343 0.14063,2.855469"
         fill-opacity="1"
         fill-rule="nonzero"
         id="path1" />
      <path
         fill="#155dfc"
         d="m 181.64453,59.65625 c -9.92578,-0.371094 -21.49609,-0.371094 -35.08594,-0.371094 -45.79296,0 -68.691402,0 -82.921871,14.222656 C 49.414062,87.75 49.414062,110.63672 49.414062,156.42969 c 0,45.79297 0,68.6914 14.222657,82.91015 14.242187,14.23438 37.128911,14.23438 82.921871,14.23438 45.79297,0 68.6875,0 82.91016,-14.23438 14.23047,-14.21093 14.23047,-37.11718 14.23047,-82.91015 0,-13.58985 0,-25.16016 -0.36719,-35.08985 -1.03125,0.90625 -2.10547,1.75782 -3.21484,2.5586 -1.11328,0.80469 -2.26172,1.55469 -3.44141,2.24609 -1.18359,0.69531 -2.39453,1.33203 -3.63672,1.91406 -1.24219,0.57813 -2.51172,1.10157 -3.80078,1.5625 -1.29297,0.46094 -2.60156,0.85938 -3.93359,1.19922 -1.32813,0.33594 -2.66797,0.60938 -4.02344,0.82422 -1.35547,0.21094 -2.71875,0.35938 -4.08594,0.44141 -1.36719,0.082 -2.73828,0.10156 -4.10937,0.0586 -1.3711,-0.0469 -2.73438,-0.15625 -4.09375,-0.33203 -1.35938,-0.17188 -2.71094,-0.41016 -4.04688,-0.71094 -1.33984,-0.30078 -2.66015,-0.66406 -3.96484,-1.08984 -1.30078,-0.42578 -2.58203,-0.91016 -3.83985,-1.45313 -1.25781,-0.54687 -2.48828,-1.15234 -3.6914,-1.8125 -1.19922,-0.66015 -2.36719,-1.3789 -3.5,-2.14843 -1.13672,-0.77344 -2.23047,-1.59375 -3.28516,-2.46875 -1.05859,-0.875 -2.07031,-1.79688 -3.03906,-2.76563 -0.96875,-0.96875 -1.89063,-1.98437 -2.76563,-3.03906 -0.875,-1.05469 -1.69921,-2.15234 -2.46875,-3.28516 -0.77343,-1.13281 -1.48828,-2.30078 -2.14843,-3.5039 -0.66407,-1.19922 -1.26563,-2.42969 -1.8125,-3.6875 -0.54297,-1.25782 -1.03125,-2.53907 -1.45703,-3.84375 -0.42188,-1.30078 -0.78516,-2.621098 -1.08594,-3.960941 -0.30078,-1.335938 -0.53906,-2.6875 -0.71485,-4.046875 -0.17187,-1.359375 -0.28125,-2.726563 -0.32812,-4.097656 -0.043,-1.367188 -0.0273,-2.738282 0.0586,-4.105469 0.082,-1.371094 0.23047,-2.730469 0.44141,-4.085938 0.21094,-1.355469 0.48828,-2.699219 0.82422,-4.027343 0.33984,-1.328126 0.73828,-2.636719 1.19922,-3.929688 0.46093,-1.289062 0.98047,-2.558594 1.5625,-3.800781 0.57812,-1.242188 1.21875,-2.453125 1.91015,-3.636719 0.69532,-1.183594 1.44532,-2.328125 2.2461,-3.441406 0.80468,-1.113282 1.65625,-2.183594 2.55859,-3.214844"
         fill-opacity="0.5"
         fill-rule="nonzero"
         id="path2" />
      <path
         fill="#155dfc"
         d="m 63.644531,239.35156 c 14.222657,14.22266 37.121099,14.22266 82.914059,14.22266 45.79297,0 68.69922,0 82.92188,-14.23438 13.17969,-13.17187 14.15234,-33.79297 14.21875,-73.19531 h -30.69531 c -8.79297,0 -13.19141,0 -17.05079,1.77734 -3.86328,1.77735 -6.73046,5.1211 -12.45312,11.79297 l -5.875,6.85938 c -5.73438,6.67187 -8.58984,10.01562 -12.45313,11.79297 -3.86718,1.77734 -8.25781,1.77734 -17.05078,1.77734 h -3.11718 c -8.79297,0 -13.19141,0 -17.0586,-1.77734 -3.86718,-1.77735 -6.72265,-5.1211 -12.44531,-11.79297 l -5.88672,-6.85938 c -5.72265,-6.67187 -8.57812,-10.01562 -12.441405,-11.79297 -3.867187,-1.77734 -8.257813,-1.77734 -17.058594,-1.77734 H 49.414062 c 0.07031,39.39063 1.039063,60.02344 14.230469,73.19531"
         fill-opacity="1"
         fill-rule="nonzero"
         id="path3" />
    </g>
    <g
       id="g25"
       fill="#ffffff"
       transform="translate(0,-7.997798)">
      <g
         transform="translate(256.50536,243.80248)"
         id="g5">
        <g
           id="g4">
          <path
             d="M 114.5,0 H 76.078125 v -70.09375 c 0,-4.65625 -1.167969,-8.519531 -3.5,-11.59375 -2.324219,-3.082031 -5.730469,-4.625 -10.21875,-4.625 -4.492187,0 -7.902344,1.542969 -10.234375,4.625 -2.324219,3.074219 -3.484375,6.9375 -3.484375,11.59375 V 0 h -38.40625 v -70.34375 c 0,-7.8125 1.160156,-15.003906 3.484375,-21.578125 2.332031,-6.570313 5.742188,-12.269535 10.234375,-17.093755 4.488281,-4.82031 9.929687,-8.5625 16.328125,-11.21875 6.40625,-2.66406 13.765625,-4 22.078125,-4 8.3125,0 15.710937,1.375 22.203125,4.125 6.488281,2.74219 11.9375,6.48047 16.34375,11.21875 4.40625,4.74219 7.76953,10.437505 10.09375,17.093755 2.33203,6.648437 3.5,13.796875 3.5,21.453125 z m 0,0"
             id="path4" />
        </g>
      </g>
      <g
         fill="#ffffff"
         fill-opacity="1"
         id="g9">
        <g
           transform="translate(381.22903,243.80248)"
           id="g8">
          <g
             id="g7">
            <path
               d="m 48.640625,-121.23438 v 70.093755 c 0,4.65625 1.160156,8.527344 3.484375,11.609375 2.332031,3.074219 5.742188,4.609375 10.234375,4.609375 4.488281,0 7.894531,-1.535156 10.21875,-4.609375 2.332031,-3.082031 3.5,-6.953125 3.5,-11.609375 V -121.23438 H 114.5 v 70.343755 c 0,7.8125 -1.16797,15.007813 -3.5,21.578125 -2.32422,6.574219 -5.6875,12.230469 -10.09375,16.96875 C 96.5,-7.601562 91.050781,-3.859375 84.5625,-1.109375 78.070312,1.628906 70.671875,3 62.359375,3 54.046875,3 46.644531,1.671875 40.15625,-0.984375 33.675781,-3.648438 28.234375,-7.394531 23.828125,-12.21875 19.421875,-17.039062 16.050781,-22.738281 13.71875,-29.3125 11.394531,-35.882812 10.234375,-43.078125 10.234375,-50.890625 v -70.343755 z m 0,0"
               id="path6" />
          </g>
        </g>
      </g>
      <g
         fill="#ffffff"
         fill-opacity="1"
         id="g12">
        <g
           transform="translate(505.95269,243.80248)"
           id="g11">
          <g
             id="g10">
            <path
               d="M 54.625,-174.60937 V 0 H 14.71875 v -174.60937 z m 0,0"
               id="path9" />
          </g>
        </g>
      </g>
      <g
         fill="#ffffff"
         fill-opacity="1"
         id="g15">
        <g
           transform="translate(575.29907,243.80248)"
           id="g14">
          <g
             id="g13">
            <path
               d="M 54.625,-174.60937 V 0 H 14.71875 v -174.60937 z m 0,0"
               id="path12" />
          </g>
        </g>
      </g>
      <g
         fill="#ffffff"
         fill-opacity="1"
         id="g18">
        <g
           transform="translate(644.64548,243.80248)"
           id="g17">
          <g
             id="g16">
            <path
               d="m 50.140625,-174.60937 v 109.749995 c 0,4.324219 0.578125,8.402344 1.734375,12.234375 1.164062,3.824219 2.910156,7.148438 5.234375,9.96875 2.332031,2.824219 5.242187,5.070312 8.734375,6.734375 3.5,1.667969 7.660156,2.5 12.484375,2.5 7.976563,0 14.546875,-2.535156 19.703125,-7.609375 5.15625,-5.070312 7.73438,-11.597656 7.73438,-19.578125 0,-4 -0.71094,-7.660156 -2.125,-10.984375 -1.40625,-3.320312 -3.32032,-6.1875 -5.73438,-8.59375 -2.40625,-2.414062 -5.320312,-4.289062 -8.734375,-5.625 -3.40625,-1.332031 -7.105469,-2 -11.09375,-2 -4.15625,0 -7.609375,0.375 -10.359375,1.125 -2.742188,0.75 -4.777344,1.542969 -6.109375,2.375 v -36.92188 c 2,-0.83203 4.578125,-1.53906 7.734375,-2.125 3.164062,-0.58203 7.078125,-0.875 11.734375,-0.875 8.644531,0 16.914063,1.5 24.812505,4.5 7.89453,2.99219 14.7539,7.23047 20.57812,12.71875 5.82031,5.49219 10.47656,12.148442 13.96875,19.968755 3.5,7.8125 5.25,16.542969 5.25,26.1875 0,9.148437 -1.66797,17.585937 -5,25.3125 -3.32422,7.730469 -7.98047,14.464844 -13.96875,20.203125 -5.99219,5.742188 -13.05859,10.234375 -21.20312,13.484375 C 97.367188,1.378906 88.554688,3 79.078125,3 69.429688,3 60.40625,1.628906 52,-1.109375 43.601562,-3.859375 36.328125,-7.769531 30.171875,-12.84375 24.023438,-17.914062 19.164062,-23.984375 15.59375,-31.046875 12.019531,-38.117188 10.234375,-46.0625 10.234375,-54.875 v -119.73437 z m 0,0"
               id="path15" />
          </g>
        </g>
      </g>
      <g
         fill="#ffffff"
         fill-opacity="1"
         id="g21">
        <g
           transform="translate(797.05781,243.80248)"
           id="g20">
          <g
             id="g19">
            <path
               d="m 131.95312,-60.609375 c 0,8.480469 -1.66406,16.546875 -4.98437,24.203125 -3.32422,7.648438 -7.85547,14.421875 -13.59375,20.328125 -5.74219,5.898437 -12.39844,10.554687 -19.96875,13.96875 C 85.84375,1.296875 77.820312,3 69.34375,3 60.863281,3 52.835938,1.296875 45.265625,-2.109375 37.703125,-5.523438 31.050781,-10.179688 25.3125,-16.078125 19.582031,-21.984375 15.050781,-28.757812 11.71875,-36.40625 8.394531,-44.0625 6.734375,-52.128906 6.734375,-60.609375 c 0,-8.488281 1.660156,-16.554687 4.984375,-24.203125 3.332031,-7.644531 7.863281,-14.378906 13.59375,-20.20313 5.738281,-5.82031 12.390625,-10.47656 19.953125,-13.96875 7.570313,-3.5 15.597656,-5.25 24.078125,-5.25 8.644531,0 16.75,1.75 24.3125,5.25 7.57031,3.49219 14.1875,8.1875 19.84375,14.09375 5.65625,5.898442 10.14453,12.67188 13.46875,20.32813 3.32031,7.648438 4.98437,15.632812 4.98437,23.953125 z m -62.60937,25.6875 c 3.5,0 6.742188,-0.707031 9.734375,-2.125 2.988281,-1.414063 5.5625,-3.328125 7.71875,-5.734375 2.164063,-2.40625 3.832031,-5.144531 5,-8.21875 1.164063,-3.082031 1.75,-6.285156 1.75,-9.609375 0,-3.332031 -0.585937,-6.535156 -1.75,-9.609375 -1.167969,-3.070312 -2.792969,-5.8125 -4.875,-8.21875 -2.074219,-2.414062 -4.648437,-4.332031 -7.71875,-5.75 -3.074219,-1.414062 -6.445313,-2.125 -10.109375,-2.125 -3.492188,0 -6.695312,0.710938 -9.609375,2.125 -2.90625,1.417969 -5.445313,3.335938 -7.609375,5.75 -2.15625,2.40625 -3.820312,5.148438 -4.984375,8.21875 -1.15625,3.074219 -1.734375,6.277344 -1.734375,9.609375 0,3.324219 0.578125,6.527344 1.734375,9.609375 1.164063,3.074219 2.828125,5.8125 4.984375,8.21875 2.164062,2.40625 4.742188,4.320312 7.734375,5.734375 3,1.417969 6.242187,2.125 9.734375,2.125 z m 0,0"
               id="path18" />
          </g>
        </g>
      </g>
      <g
         fill="#ffffff"
         fill-opacity="1"
         id="g24">
        <g
           transform="translate(935.75054,243.80248)"
           id="g23">
          <g
             id="g22">
            <path
               d="m 5.484375,-121.23438 h 5 c 6.644531,0 12.335937,0.375 17.078125,1.125 4.738281,0.75 8.769531,1.96094 12.09375,3.625 3.332031,1.65625 6.203125,3.77735 8.609375,6.35938 2.414063,2.57422 4.785156,5.60547 7.109375,9.09375 2,-3.48828 4.242188,-6.51953 6.734375,-9.09375 2.5,-2.58203 5.453125,-4.66016 8.859375,-6.23438 3.40625,-1.58203 7.351562,-2.78906 11.84375,-3.625 4.488281,-0.83203 9.894531,-1.25 16.21875,-1.25 h 6.23438 v 34.92188 c -11.136724,0 -19.031255,2.039062 -23.687505,6.109375 -4.65625,4.074219 -6.984375,10.605469 -6.984375,19.59375 0,8.980469 2.328125,15.507813 6.984375,19.578125 4.65625,4.074219 12.550781,6.109375 23.687505,6.109375 V 0 H 98.03125 C 91.71875,0 86.3125,-0.414062 81.8125,-1.25 77.320312,-2.082031 73.5,-3.367188 70.34375,-5.109375 c -3.15625,-1.75 -5.902344,-3.867187 -8.234375,-6.359375 -2.324219,-2.5 -4.570313,-5.410156 -6.734375,-8.734375 -2.324219,3.492187 -4.695312,6.527344 -7.109375,9.109375 -2.40625,2.574219 -5.234375,4.652344 -8.484375,6.234375 C 36.539062,-3.285156 32.71875,-2.082031 28.3125,-1.25 23.90625,-0.414062 18.539062,0 12.21875,0 H 5.484375 v -34.921875 c 11.144531,0 19.046875,-2.035156 23.703125,-6.109375 4.65625,-4.070312 6.984375,-10.597656 6.984375,-19.578125 0,-8.988281 -2.328125,-15.519531 -6.984375,-19.59375 C 24.53125,-84.273438 16.628906,-86.3125 5.484375,-86.3125 Z m 0,0"
               id="path21" />
          </g>
        </g>
      </g>
    </g>
  </g>
</svg>
